<?xml version="1.0" encoding="UTF-8"?>
<svg xmlns="http://www.w3.org/2000/svg" width="640" height="32" viewBox="0 0 640 32">

<path stroke="#ffe7bd" stroke-width="3" fill="none" d="M -2 9 h79l39 1l19 1l60 1l141 -1l59 1l12 -1l64 -1l18 1l10 1l67 1l10 -4h66"/>
<path stroke="#ffaa00" stroke-width="1" fill="none" d="M -2 9 h79l39 1l19 1l60 1l141 -1l59 1l12 -1l64 -1l18 1l10 1l67 1l10 -4h66"/>

<path fill="#ffe7bd" stroke="none" d="M-2 20v1h644v-1z"/>
<path fill="#ffcc00" stroke="none" d="M-2 21v1h644v-1z"/>
<path fill="#ffa400" stroke="none" d="M-2 22v10h644v-10z"/>

</svg>
