<?xml version="1.0" encoding="UTF-8"?>
<svg xmlns="http://www.w3.org/2000/svg" width="258" height="192" viewBox="0 0 258 192">
<path d="M126,168.35C95.95,162.63 71.98,147.14 61.98,127c-3.79,-7.65 -3.76,-7.65 -9.17,-1.58 -14.63,16.42 -35.84,21.97 -35.80,9.37 0.02,-7.41 16.02,-29.08 23.15,-31.34 2.82,-0.89 2.34,-2.32 -4.87,-14.56C17.99,59.54 15.16,46.77 23.02,33.52 30.38,21.12 45.04,27.61 55.93,48.09l4.43,8.33 0.56,15.01L61.5,86.47 64.84,81.25c5.74,-8.96 16.95,-16.97 50.60,-36.16 20.73,-11.82 55.75,-12.49 72.17,-1.37 2.26,1.53 6.76,4.54 10,6.69 7.90,5.23 26.94,24.30 28.86,28.90 0.84,2.01 4.39,8.29 7.89,13.96 12.55,20.30 12.83,24.64 2.50,38.38 -2.95,3.93 -6.58,9.18 -8.05,11.66C218.08,161.43 161.73,175.15 126,168.35zm39.02,-11.40c34.60,-4.31 48.86,-10.01 55.93,-22.37 1.67,-2.93 3.72,-5.89 4.54,-6.57 2.94,-2.44 1.34,-2.87 -8.75,-2.33 -21.59,1.14 -40.75,-3.21 -40.75,-9.27 0,-5.92 4.82,-7.08 20.28,-4.87 14.63,2.08 34.71,1.24 34.71,-1.45 0,-0.39 -2.32,-4.50 -5.17,-9.13C222.98,96.28 219.30,90.02 217.65,87 214.22,80.70 199.67,65.65 193,61.48 190.52,59.93 186.86,57.36 184.87,55.77 166.75,41.25 138.59,44.69 103.26,65.74 78.71,80.37 75.85,82.97 68.64,97.25c-1.63,3.23 -2.80,4.32 -4.89,4.56 -3.26,0.37 -3.37,0.88 -0.79,3.63 1.07,1.14 3.94,6.12 6.37,11.06 15.13,30.78 51.11,45.98 95.69,40.42zm5.89,-67.86C164.07,82.22 169.47,73 180.34,73c9.76,0 15.12,12.30 7.40,17.01 -5.23,3.19 -13.13,2.75 -16.82,-0.93zM37.90,123.55C40.92,121.98 47,115.56 47,113.93c0,-1.67 -3.13,0.54 -8.46,5.99 -5.18,5.30 -5.31,6.04 -0.63,3.62zM49.59,83.35C52.27,69.08 47.22,50.80 38.53,43.34 28.21,34.48 27.28,49.84 37,68.5 47.14,87.95 48.44,89.48 49.59,83.35z" fill="#feebcf"/>
<path d="M118.5,165.12C89.88,157.96 70.68,143.95 61.07,123.22 58.11,116.83 58.03,116.82 53.55,122.92 48.91,129.24 29.41,142 24.38,142 11,142 20.11,120.42 40.23,104.46L43.97,101.5 37.32,90C26.42,71.16 25.25,68.84 22.56,60.82 18.22,47.84 19.75,37.03 26.97,29.62 32.75,23.69 47.50,34.05 55.5,49.65l4,7.80 0,16.26c0,18.58 -0.16,18.24 4.93,10.24C77.83,62.94 124.40,37.98 151.68,37.21 172.09,36.64 177.56,38.31 196.10,50.81 203.26,55.63 225,76.39 225,78.41c0,0.71 3.36,6.87 7.47,13.67 13.16,21.80 13.51,25.46 3.75,38.46 -3.27,4.36 -6.68,9.35 -7.56,11.08 -3.41,6.67 -17.09,16.52 -27.10,19.51 -24.14,7.21 -62.71,9.05 -83.05,3.96zm56,-8.15c3.3,-0.67 10.25,-2.07 15.44,-3.10 10.03,-1.98 20.28,-6.20 25.28,-10.41C217.85,141.25 229,125.79 229,124.36c0,-0.27 -4.63,-0.19 -10.29,0.18 -9.33,0.62 -23.90,-0.62 -36.96,-3.17 -5.39,-1.05 -6.01,-7.55 -0.90,-9.51 1.93,-0.74 5.96,-0.55 14.66,0.68 11.55,1.64 27.95,1.55 34.32,-0.18 3.29,-0.90 2.44,-3.31 -5.85,-16.62C220.13,89.59 217,83.99 217,83.28 217,81.43 198.15,63.01 192.91,59.73 190.48,58.22 186.99,55.87 185.15,54.52 165.62,40.19 138.67,43.34 103.74,64.04 77.87,79.37 75.26,81.77 67.09,97.93 64.92,102.21 59,100.63 59,95.78 59,94.73 58.55,94.16 58,94.5c-2.12,1.31 -0.88,5.78 2.87,10.32 2.13,2.57 6.26,9.40 9.19,15.17 10.49,20.73 28.43,31.84 61.92,38.36 4.60,0.89 36.42,-0.14 42.5,-1.38zm-1.13,-67.08c-8.04,-4.10 -4.38,-14.69 5.39,-15.63 8.88,-0.85 15.17,8.87 9.22,14.26 -2.38,2.15 -11.41,3 -14.62,1.37zM38.75,124.21c4.13,-2.19 11.16,-10.36 11.21,-13.02 0.04,-2.29 -7.67,2.81 -13.52,8.95 -7.89,8.28 -7.36,9.21 2.30,4.07zM50.77,71.45C50.25,57.69 46.41,47.95 39.12,41.94 22.47,28.22 28.96,65.11 47.38,88.87c2.37,3.05 3.87,-4.65 3.38,-17.42z" fill="#feda9e"/>
<path d="m127.5,166.36c-1.1,-0.26 -5.78,-1.40 -10.40,-2.52C90.96,157.48 72.28,143.70 62.08,123.25c-3.44,-6.91 -4.86,-7.59 -7.28,-3.49 -6.52,11.04 -29.76,24.25 -34.14,19.41 -5.39,-5.96 4.22,-21.34 22.16,-35.44 1.24,-0.97 2.07,-2.10 1.83,-2.5C24.46,66.55 21,58.70 21,47.59 21,23.10 40.34,23.83 54.15,48.85L58.37,56.5 58.80,71.08c0.34,11.47 0.08,15.77 -1.18,20.15 -2.23,7.69 -2.12,8.37 2.23,13.62 2.11,2.55 6.25,9.36 9.18,15.13 15.31,30.12 59.66,46.49 103.46,38.16 21.63,-4.11 27.59,-5.57 33.23,-8.17 8.08,-3.72 13.36,-8.03 16.27,-13.27 1.28,-2.31 3.60,-5.77 5.16,-7.69 4.77,-5.86 4.22,-6.24 -7.75,-5.44C200.57,124.83 178,120.98 178,116.5c0,-4.64 3.62,-5.19 18.87,-2.89 10.70,1.61 26,1.40 32.62,-0.45 4.40,-1.23 3.72,-4.27 -3.57,-15.81 -3.41,-5.41 -6.96,-11.49 -7.87,-13.51 -3.67,-8.12 -24.35,-26.15 -37.64,-32.81 -18.65,-9.35 -42.69,-7.39 -65.03,5.27C79.61,76.57 73.30,81.75 67.56,95.50 65.10,101.38 60,101.04 60,95 60,83.79 85.19,62.44 117.72,46.10c22.62,-11.36 55.61,-11.12 70.86,0.51 2.37,1.81 6.25,4.49 8.61,5.96 4.83,3 26.77,24.31 26.78,26.01 0,0.60 3.38,6.68 7.50,13.5 13.28,21.98 13.68,25.28 4.44,37.39 -3.35,4.4 -6.97,9.68 -8.03,11.74 -9,17.41 -69.65,32.59 -100.40,25.12zM36.58,126.41c7.89,-4.41 17.42,-15.73 15.16,-18C49.74,106.40 29,124.75 29,128.53c0,2.02 0.33,1.93 7.58,-2.12zM51.03,85.84C54.72,70.48 49.48,49.85 39.79,41.55 24.86,28.77 24.62,52.43 39.43,77.5c2.92,4.95 5.83,10.01 6.47,11.25 1.92,3.72 3.78,2.66 5.12,-2.90zM172.25,87.78C167.14,82.31 171.29,75 179.5,75c7.68,0 13.03,8.82 7.91,13.06 -3.14,2.60 -12.62,2.42 -15.16,-0.28z" fill="#feca6e"/>
<path d="M130,166.34C95.19,159.44 74.87,146.47 62.88,123.5 58.69,115.47 57.20,114.68 54.59,119.10 51.92,123.63 45.30,129.78 40.03,132.64 37.54,133.99 33.7,136.19 31.5,137.53c-9.90,6.02 -14.88,0.09 -9.41,-11.20 2.73,-5.64 12.54,-16.27 18.48,-20.03 5.51,-3.48 5.50,-4.22 -0.20,-13.92C37.81,88.04 33.99,81.56 31.88,77.97 14.93,49.19 20.02,19.82 39.70,32.95 56.38,44.10 63.16,66.85 56.97,90.90l-2.31,8.99 4.12,4.47c2.26,2.46 6.18,8.68 8.70,13.82C85.62,155.23 126.30,167.60 190,155.44c16.29,-3.11 28.17,-9.97 32.70,-18.89 0.85,-1.67 3.06,-4.92 4.92,-7.22 5.67,-7 5.29,-7.27 -9.59,-6.60C197.42,123.63 179,120.69 179,116.48c0,-3.67 3.58,-4.06 19.5,-2.12 13.36,1.63 25.33,1.28 32.75,-0.96 3.28,-0.99 1.88,-5.53 -5.20,-16.89 -3.82,-6.13 -7.43,-12.39 -8.01,-13.91 -1.29,-3.40 -17.30,-19.46 -22.97,-23.04 -2.28,-1.43 -6.17,-4.16 -8.65,-6.06C171.45,42.06 141.95,41.91 119.66,53.14 111.80,57.10 83.49,74.35 79.33,77.73 75.91,80.49 70.39,88.51 66.04,97c-1.41,2.76 -4.52,1.79 -4.83,-1.5 -1.06,-11.35 13.92,-24.59 52.70,-46.53 26.36,-14.91 58.96,-14.74 77.50,0.41 2.23,1.82 5.41,4.02 7.06,4.88 4.71,2.44 23.36,21.22 25.27,25.45 0.94,2.09 4.53,8.36 7.98,13.91 11.92,19.24 12.48,23.90 4.18,34.86 -3.33,4.4 -6.90,9.62 -7.94,11.61 -5.67,10.82 -20.25,18.91 -40.99,22.74 -3.02,0.55 -7.97,1.55 -11,2.21 -5.53,1.20 -41.34,2.20 -46,1.27zM36.66,127.14c8.70,-4.91 18.24,-16.63 15.64,-19.23C49.35,104.95 28,124.30 28,129.93c0,1.74 1.46,1.26 8.66,-2.78zM51.03,88.39c0.77,-2.33 1.05,-8.24 0.80,-16.75L51.44,58.5 47.40,51C40.92,38.97 32.67,33.86 29.52,39.95c-3.77,7.29 -0.10,21.64 9.82,38.41 2.97,5.02 5.92,10.14 6.56,11.38 1.69,3.29 3.76,2.74 5.12,-1.35zM172.57,87.42c-2.28,-2.28 -1.99,-7.73 0.53,-10.02 6.94,-6.28 20.53,2.95 13.98,9.50 -2.64,2.64 -12.05,2.97 -14.51,0.51z" fill="#ffbb33"/>
<path d="M125,164.49C92.29,157.12 74.33,144.67 62.60,121.25c-4.29,-8.57 -4.54,-8.64 -8.77,-2.5 -5.19,7.55 -16.99,16.36 -26.95,20.11 -14.61,5.50 -2.90,-20.93 14.10,-31.85C47.46,102.84 47.55,103.29 36.43,84 21.47,58.05 18.85,46.24 25.61,35.29 39.29,13.13 64.84,60.07 56.07,91.25 53.70,99.66 53.65,99.40 59.06,106c2.03,2.47 5.99,9.03 8.81,14.57 13.67,26.88 39.93,39.88 80.62,39.91 41.57,0.03 64.01,-7.46 76.14,-25.43 2.42,-3.60 5.39,-7.78 6.58,-9.30 3.40,-4.32 1.65,-4.94 -9.96,-3.58C205.88,123.96 180,120.41 180,116.5c0,-3.12 3.59,-3.59 14.72,-1.91 11.51,1.74 31.36,1.47 36.55,-0.50 4.69,-1.78 3.67,-5.07 -6.71,-21.61C221.50,87.59 219,82.99 219,82.23 219,80.17 200.62,62.22 193.75,57.58 182.71,50.12 180.56,49 172.20,46.36 151.69,39.87 133.06,44.07 102.84,61.99 76.85,77.41 71.61,82.09 66.38,94.61 64.55,98.99 61.38,98.98 61.70,94.60 62.50,83.43 76.05,71.53 110.33,51.88 137.74,36.18 168.15,34.35 186.99,47.27c2.47,1.70 6.75,4.62 9.50,6.49 6.21,4.22 26.5,23.85 26.5,25.65 0,0.72 3.24,6.66 7.21,13.19 12.76,21.03 13.29,24.56 5.22,35.28 -2.97,3.95 -6.56,9.15 -7.97,11.57 -6.66,11.37 -18.77,18.36 -38.03,21.95 -4.90,0.91 -10.72,2.12 -12.92,2.69 -6.91,1.78 -44,2.04 -51.5,0.36zM40.66,125.38c8.05,-5.06 15.82,-17.48 11.89,-18.99 -3.54,-1.36 -23.71,16.36 -25.15,22.10 -1.42,5.66 -0.24,5.38 13.25,-3.11zM52.57,85.32C55.84,63.52 46.86,39.51 34.26,36.35 20.57,32.91 27.90,65.94 46.59,91.90l1.73,2.40 1.78,-2.19c0.97,-1.20 2.09,-4.26 2.46,-6.78zM174.69,88.35C172.19,87.63 170.82,83.60 172,80.48 174.71,73.35 188,75.72 188,83.33c0,4.13 -7.08,6.80 -13.30,5.01z" fill="#ffaa00"/>
<path
   d="m128,164.34c-33.54,-6.58 -52.60,-19.55 -65.22,-44.38 -3.79,-7.47 -5.56,-8.27 -8.23,-3.75 -6.25,10.59 -27.87,25.25 -32.08,21.75C17.36,133.73 29.57,115.20 43.25,106.39 48.20,103.19 48.14,102.91 39.83,88.72 28.53,69.44 28.27,68.93 25.46,60.52c-5.56,-16.63 -0.03,-33.36 9.49,-28.74 17.42,8.43 27.17,36.05 20.65,58.49 -2.53,8.71 -2.17,10.87 2.70,16.37 2.37,2.67 6.02,8.45 8.11,12.85 13.10,27.58 41.27,42 82.07,42 16.18,0 19.90,-0.39 39.5,-4.16 19.39,-3.73 29.01,-9.03 35.68,-19.65 1.44,-2.29 4.05,-5.98 5.81,-8.18 6.33,-7.94 5.28,-9.89 -4.54,-8.47 -17.78,2.56 -47.95,-1.45 -43.59,-5.81 1.27,-1.27 2.93,-1.25 13.35,0.16 13.81,1.88 20.70,1.94 31.78,0.30l8,-1.18 -0.11,-3.79c-0.08,-2.78 -1.79,-6.50 -6.41,-13.99C224.49,91.09 220.65,84.47 219.43,82 217.23,77.58 199.29,59 197.22,59 196.64,59 193.95,57.24 191.24,55.09 171.03,39.12 141.65,38.81 114.37,54.28 78.59,74.59 73.64,78.57 66.41,92.98 64,97.78 62,98.81 62,95.25 62,84.77 83.68,66.70 118.5,48.17c22.13,-11.77 53.17,-11.25 70.25,1.16 3.16,2.30 7.09,5.02 8.74,6.06 5.52,3.46 23.59,21.98 25.43,26.09 0.98,2.2 4.53,8.34 7.88,13.65 11.38,18.04 11.87,22.13 3.84,32.57 -2.86,3.72 -6.43,8.87 -7.93,11.44C220.78,149.37 208.61,156.78 192.5,160c-5.5,1.09 -12.25,2.51 -15,3.14 -5.02,1.15 -44.83,2.11 -49.5,1.20zM36.95,128.69c12.66,-7.62 21.37,-19.84 16.12,-22.65 -4.29,-2.29 -24.73,15.08 -26.70,22.70 -1.57,6.08 0.39,6.07 10.58,-0.05zM51.80,91.25C53.14,88.29 53.5,84.53 53.5,73.48l0,-14.01 -4,-7.84C42.81,38.52 33.85,32.14 29.39,37.32 22.92,44.85 26.49,59.47 40.71,83.62 48.35,96.59 49.13,97.13 51.80,91.25zM173.57,86.42C169.87,82.72 173.47,77 179.5,77c6.19,0 10.33,7.41 5.56,9.96 -2.93,1.57 -9.70,1.25 -11.49,-0.53z" fill="#ffaa00"/>
</svg>
