<?xml version="1.0" encoding="UTF-8" standalone="no"?>
<svg xmlns="http://www.w3.org/2000/svg" width="16" height="16" viewBox="0 1 17 17" shape-rendering="crispEdges">
<rect x="7"  y="1"  width="2"  height="1"  style="fill:#000000"></rect>
<rect x="2"  y="2"  width="13" height="1"  style="fill:#000000"></rect>
<rect x="1"  y="3"  width="15" height="2"  style="fill:#000000"></rect>
<rect x="2"  y="2"  width="12" height="13" style="fill:#000000"></rect>
<rect x="3"  y="15" width="2"  height="1"  style="fill:#000000"></rect>
<rect x="1"  y="7"  width="1"  height="4"  style="fill:#000000"></rect>
<rect x="0"  y="8"  width="1"  height="2"  style="fill:#000000"></rect>
<rect x="14" y="5"  width="1"  height="1"  style="fill:#000000"></rect>
<rect x="14" y="7"  width="1"  height="4"  style="fill:#000000"></rect>
<rect x="15" y="8"  width="1"  height="2"  style="fill:#000000"></rect>
<rect x="14" y="12" width="1"  height="1"  style="fill:#000000"></rect>
<rect x="15" y="13" width="1"  height="3"  style="fill:#000000"></rect>
<rect x="6"  y="15" width="10" height="1"  style="fill:#000000"></rect>
<rect x="7"  y="16" width="2"  height="1"  style="fill:#000000"></rect>
<rect x="10" y="16" width="5"  height="1"  style="fill:#000000"></rect>

<rect x="7"  y="5"  width="1"  height="2"  style="fill:#008000"></rect>
<rect x="8"  y="3"  width="1"  height="3"  style="fill:#008000"></rect>
<rect x="9"  y="4"  width="1"  height="1"  style="fill:#008000"></rect>
<rect x="10" y="8"  width="4"  height="4"  style="fill:#008000"></rect>

<rect x="7"  y="2"  width="2"  height="1"  style="fill:#00e500"></rect>
<rect x="1"  y="8"  width="1"  height="2"  style="fill:#00e500"></rect>

<rect x="2"  y="3"  width="5"  height="2"  style="fill:#c0c0c0"></rect>
<rect x="10" y="3"  width="5"  height="1"  style="fill:#c0c0c0"></rect>
<rect x="11" y="4"  width="4"  height="1"  style="fill:#c0c0c0"></rect>
<rect x="4"  y="5"  width="2"  height="9"  style="fill:#c0c0c0"></rect>
<rect x="4"  y="14" width="1"  height="1"  style="fill:#c0c0c0"></rect>
<rect x="6"  y="9"  width="1"  height="4"  style="fill:#c0c0c0"></rect>
<rect x="10" y="5"  width="4"  height="1"  style="fill:#c0c0c0"></rect>
<rect x="9"  y="6"  width="4"  height="1"  style="fill:#c0c0c0"></rect>
<rect x="8"  y="7"  width="4"  height="1"  style="fill:#c0c0c0"></rect>
<rect x="7"  y="8"  width="4"  height="1"  style="fill:#c0c0c0"></rect>
<rect x="6"  y="9"  width="4"  height="1"  style="fill:#c0c0c0"></rect>
<rect x="7"  y="10" width="1"  height="1"  style="fill:#c0c0c0"></rect>
<rect x="8"  y="11" width="1"  height="1"  style="fill:#c0c0c0"></rect>
<rect x="8"  y="13" width="1"  height="3"  style="fill:#c0c0c0"></rect>
<rect x="10" y="13" width="1"  height="3"  style="fill:#c0c0c0"></rect>
<rect x="12" y="13" width="1"  height="3"  style="fill:#c0c0c0"></rect>
<rect x="14" y="13" width="1"  height="3"  style="fill:#c0c0c0"></rect>
<rect x="10" y="13" width="5"  height="1"  style="fill:#c0c0c0"></rect>

<rect x="3"  y="5"  width="1"  height="10" style="fill:#ffffff"></rect>
<rect x="10" y="5"  width="1"  height="1"  style="fill:#ffffff"></rect>
<rect x="9"  y="6"  width="1"  height="1"  style="fill:#ffffff"></rect>
<rect x="8"  y="7"  width="1"  height="1"  style="fill:#ffffff"></rect>
<rect x="7"  y="8"  width="1"  height="1"  style="fill:#ffffff"></rect>

<rect x="11" y="8"  width="1"  height="1"  style="fill:#000000"></rect>
<rect x="10" y="9"  width="1"  height="1"  style="fill:#000000"></rect>
<rect x="13" y="11" width="1"  height="1"  style="fill:#000000"></rect>

<rect x="13" y="7"  width="1"  height="1"  style="fill:#000078"></rect>
<rect x="14" y="8"  width="1"  height="2"  style="fill:#000078"></rect>
<rect x="13" y="10" width="1"  height="1"  style="fill:000078"></rect>
<rect x="12" y="11" width="1"  height="1"  style="fill:000078"></rect>
</svg>

