<?xml version="1.0" encoding="UTF-8"?>
<svg xmlns="http://www.w3.org/2000/svg"
	xmlns:xlink="http://www.w3.org/1999/xlink"
	width="224" height="70"
	viewBox="0 0 224 70"
>
<!-- Titolo -->
<defs>
<path id="rougoku" d="M4,0h1v1h4v2h-1v-1h-7v1h-1v-2h4zM12,0h1v2h3v1h1v-3h1v3h1v1h-1v3h1v1h1v2h-1v-2h-1v2h-1v-6h-1v-1h-3v7h-1v-1h-1v-1h1v-2h-1v-1h1v-1h-1v-1h1zM14,0h1v1h-1zM23,0h1v2h1v-1h1v-1h1v1h-1v1h2v-1h1v-1h1v1h-1v1h1v2h1v2h-2v2h1v-1h1v1h-1v1h1v1h-1v-1h-1v1h-1v-1h-1v-1h-1v1h-1v1h-2v-3h-1v-2h1v-2h-1v-1h1zM34,0h1v2h1v1h3v-3h1v3h2v1h-1v2h1v1h-1v1h1v2h-1v-2h-1v1h-1v1h-1v-1h1v-1h-1v-1h-1v2h-1v-2h-1v3h-1v-3h-1v-2h1v-2h-1v-1h1zM48,0h1v2h4v1h-2v2h-1v1h-1v1h1v1h1v1h1v1h-1v-1h-1v-1h-1v-1h-1v1h-1v1h-1v1h-1v-1h1v-1h1v-1h1v-1h-1v-1h-1v-2h-2v-1h4zM59,0h1v1h2v2h1v1h-1v1h-1v1h3v1h-2v3h-5v-3h-2v-1h3v-1h-1v-1h-1v-1h3v-1h-2v-1h2zM19,1h1v1h-1zM26,2h-1v1h1zM29,2h-1v1h1zM41,1h1v1h-1zM61,2h-1v1h1zM67,1h3v1h1v-1h1v1h1v-1h1v1h1v1h-2v1h1v1h-1v1h2v1h-2v3h-1v-3h-2v2h-3v-1h-1v-1h1v-1h1v-1h-1v-1h-1v-1h2v-1h-1zM25,3h-1v1h1zM36,3h-1v1h1zM48,3h-1v2h1v1h1v-1h1v-2zM71,3h-1v2h-1v1h3v-1h-1v-1h1v-1zM2,3h1v1h1v-1h1v1h2v1h-2v2h3v1h-3v2h-1v-2h-3v-1h3v-2h-2v1h-1v-2h1zM26,4h-1v1h-1v4h1v-3h1v-1h1v-1zM29,4h-1v1h2v-1zM37,4h-1v1h1v1h1v-1h1v3h1v-4zM14,4h1v1h-1zM36,5h-1v1h1zM27,6h-1v1h1v1h1v-2zM14,6h1v1h-1zM69,7h-1v1h1zM29,8h-1v1h1zM59,8h-1v1h3v-1zM14,8h2v2h-2v-2z" shape-rendering="crispEdges" transform="scale(2 2)"/>
</defs>
<!-- Fisxo -->
<defs>
	<g id="fisxo">
		<path fill="#59a5f4" d="M33,60.5c-0.736-0.886-2.934-1.504-5.372-1.51-2.271-0-6.49-1.109-9.378-2.454-4.255-1.981-5.25-2.912-5.25-4.912,0-3.058,6.728-9.089,11.895-10.661,1.982-0.603,5.278-1.987,7.323-3.076,3.235-1.722,4.276-1.831,8-0.84,2.354,0.626,4.955,1.718,5.78,2.426,0.825,0.707,3,2.051,4.852,2.985,3.231,1.637,3.431,1.624,5.564-0.379,1.217-1.144,2.694-2.079,3.282-2.079,1.97,0,2.092,3.814,0.221,6.891-1.642,2.701-1.677,3.144-0.31,3.909,1.037,0.58,1.435,1.978,1.216,4.272-0.466,4.877-3.097,4.976-6.465,0.242l-2.715-3.817-5.548,5.25c-5.891,5.574-10.491,6.891-13.098,3.75zm-23.479-19.434c-0.836-2.636,0.079-4.066,2.604-4.066,1.598,0,1.943,0.558,1.691,2.741-0.385,3.341-3.363,4.259-4.295,1.324zm3.054-11.984c-0.954-1.054-1.586-2.967-1.405-4.25,0.283-2,0.901-2.332,4.33-2.332,3.358,0,4.05,0.352,4.312,2.198,0.763,5.365-3.831,8.148-7.238,4.384zm4.841-2.725c0.346-0.903,0.414-1.859,0.15-2.123-0.93-0.929-3.567,0.724-3.567,2.237,0,2.047,2.62,1.961,3.416-0.111zm-0.3-14c-1.1-1.1-2-2.9-2-4,0-2.729,3.481-6,6.385-6,2.789,0,5.615,3.739,5.615,7.43,0,4.486-6.431,6.139-1,2.57zm6.803-3.880c-0.237-2.041-0.852-2.619-2.79-2.619-1.598,0-2.61,0.642-2.832,1.798-0.489,2.541,1.529,4.59,3.909,3.968,1.488-0.389,1.937-1.213,1.713-3.146z" transform="scale(1.05 1) translate(-2 0)"/>
		<path fill="#3b444d" stroke="#6b747d" stroke-width="0.5" d="M34,60.124 c0-0.482-2.387-1.074-5.304-1.316-7.331-0.608-14.696-4.263-14.696-7.294,0-3.087,5.848-8.105,11.233-9.639,2.346-0.6,5-2,6-3,3-3,8-2,15.664,2.307 l6.848,4.138,2.275-2.138c4.378-4.113,6.241-1.645,2.955,3.917-1.597,2.703-1.592,2.973,0.1,4.832,1.974,2.18,1.4,6.112-0.893,6.112-1.346,0-5.505-4.559-5.505-6.035,0-0.421,1.635-2.4,3.633-4.398,2-2,3.351-3.916,3-4.261-0.911-0.912-4.639,2.733-4.639,4.536,0,1.126-0.729,0.852-2.75-1.033-4.458-4.158-6.638-4.809-16.101-4.809-10.022,0-16.704,2.1-19.532,6.137-2.472,3.529-2,4.792,2.633,6.89,4.238,1.924,18.435,2.798,22.168,1.366,2-0.77,2.062-2.393,0.082-2.393-0.825,0-1.5-0.45-1.5-1s0.675-1,1.5-1,1.5-0.45,1.5-1c0-2.215-3.802-0.921-4.41,1.5-0.948,3.777-2.345,3-2.235-1.25l0.097-3.75,4.371,0.358c4.189,0.343,4.354,0.479,3.947,3.25-0.547,3.731,1.386,3.797,4.114,0.141,1.128-1.512,2.066-2.166,2.083-1.452,0.017,0.713-2.196,3.526-4.92,6.25-4.074,4.075-5.579,4.952-8.498,4.952-1.952,0-3.548-0.394-3.548-0.876zm25-5.507c0-1.542-0.705-2.567-2-2.906-2.429-0.635-2.59,0.979-0.345,3.461,2.135,2.358,2.345,2.309,2.345-0.555zm-20-15.617c-1.956-1.264-4-1.264-4,0,0,0.55,1.237,1,2.75,0.984,2.143-0.012,2.419-0.23,1.25-0.985zm-17.128,10.313c-1.208-1.485-1.153-1.605,0.459-1,1,0.378,3.146,0.687,4.751,0.687s2.918,0.45,2.918,1c0,1.693-6.648,1.131-8.127-0.687z M13 29 c-2.201-2.201-1.427-5.526,1.456-6.249,3.866-0.97,5.841,1.262,4.235,4.787-1.287,2.824-3.708,3.446-5.692,1.462zm4.857-1.907c0.745-1.393,0.791-2.443,0.135-3.1-1.459-1.459-5.194,0.056-5.194,2.107,0,3.63,3.298,4.277,5.057,1zm0.116-13.207c-2.572-2.738-2.76-4.956-0.602-7.114,3.447-3.447,8.331-0.819,8.396,4.518,0.022,1.821-0.723,2.933-2.515,3.75-3.196,1.456-2.73,1.558-5.278-1.153zm5.789-0.641c1.945-1.231,0.232-6.382-2.283-6.866-3.709-0.714-6.158,3.945-3.481,6.622,1.425,1.425,3.739,1.523,5.763,0.243z" transform="scale(1.05 1.05) translate(-2 -3)"/>
		<path d="M10 40 a 1 1.4 15 1 1 3 0 a 1 1.2 15 1 1 -3 0" stroke="#41403e" fill="none"/>
	</g>
</defs>

<use x="1" y="39" xlink:href="#rougoku" fill="#085474"/>
<use x="160" y="0" xlink:href="#fisxo"/>
</svg>
