<?xml version="1.0" encoding="UTF-8" standalone="no"?>
<svg
   xmlns="http://www.w3.org/2000/svg"
   xmlns:xlink="http://www.w3.org/1999/xlink"
   width="610"
   height="246">
<defs>
	<g id="moruo">
<path fill="#808080" 
d="m 433.5,312
c -3.5,-3 -4,-7.5 -2.7,-22.6 3,-36 5,-33 -21.6,-34.5 -67.5,-4 -78,-1.6 -117.4,23.4 -19,12 -26,13.4 -42,7 -18,-7 -30.6,-18 -40,-34 -9,-16 -10.4,-16 -30.6,-6 -16,8 -34,11 -42.5,6.6 -6.5,-3.4 -17,-21.4 -21.5,-36 -1.6,-5.7 -7,-13 -12,-16 -2,-1 -7,1 -13.6,6
C 83.5,210 65.5,217.7 57,219
c -44.4,7 -47,5 -39.6,-34 2,-11.4 2.6,-16 2.5,-29 -0,-18.6 0.6,-20.5 8.7,-20 35,1 34,1 72.5,31.4 12.4,10 13,9.6 23,-6.5 19,-31.9 30,-40.4 42,-33 2.4,1.5 8,4.6 12,7 5,2.5 10,6 14,10.7 8.6,8.5 10,8.7 21,2 8,-5 11,-7 34.4,-28 25,-22 37,-24 55.6,-9 4,3 9.5,7 13,9.4 3,2 8.6,6.5 12,9.7 8,8 8,7.8 9,-18 1,-30 3,-35 19,-35.5 15.6,-0.6 30,3 42,11.6 3,2 8.5,5.4 12,7 4,2 10,7 16.5,14 6,6 12.7,12 15,14 2.7,2 6,4.5 8,5.7 1.6,1 5,2.4 7,2.7 2,0 9.6,1 16,2 6.6,1 15,1.5 18,1.5 5,0 8,0.7 16.5,4.4 5.6,2.4 13,5 17,6 26.6,6 75,31.5 86,45 14.4,18 8.6,27 -26,41 -9,3.5 -19,7 -22,8 -3,1 -10,3 -15,4 -18.6,6 -25,7 -35.5,8 -8,0.6 -12,1 -16,3.4 -3,1.4 -6.6,2.6 -8,2.6 -6.4,0 -13.5,9.4 -20.5,27 -5,12 -6,14 -12,20.4 -9.4,9 -16.6,11.6 -22,7 z
m 22,-42.63
C 460.6,260 460,258 452.5,258
c -6,0 -6,1 -3,15 1,4 3,2.5 6,-3.6 z
M 273.8,270
c 2,-1 7.5,-4 11.4,-6.7 30,-18 30,-18 -16,-23 -5.5,-0.6 -13,-2 -16.5,-2.6 -31,-7 -36.5,-7 -32,2 10,21 39,38 53,30.4 z
M 170,230.58
c 17,-8.5 17,-9 -9.7,-14.6 -29.4,-6 -30.5,-6 -25,7.4 6,15 15,17 35,7 z
m 246,-5
c 1.5,-0.8 3,-2 3.4,-3 0,-1 3,-3 5.4,-5 2.6,-2 5.5,-4.6 6,-6 1,-1.4 3,-3.5 5,-5 8,-4.4 7,-7 -6,-14 -5,-3 -13,-7.5 -17.4,-10 -15.6,-9.6 -33.6,-15 -34,-11 -0.4,2.7 14,31 22.6,43.7 8,12 9.5,13 15,10 z
M 550,190.66
c 13,-7 3.4,-11.4 -25,-11.7 -7,0 -15.5,-0.5 -18.5,-1 -9,-1 -12.4,1.5 -8,7 5,6 42.6,10 51.7,5.4 z
M 153,166.57
c 5,-2 13,-4 17,-5 12,-2.5 12.4,-5 1,-12 -13,-8 -14,-7.4 -23,4 -13,17.6 -12.4,19 5,13 z
M 271.4,152
c 4,-0.5 14,-1 21,-1 32,0 34,-4 11,-21 -22,-16.4 -24,-16.6 -38.9,-4 -20.6,17 -29,26.4 -24,27 3,0.6 22.6,-0 31,-1 z
M 381.5,142
c 4.4,-1 12.6,-2.4 18,-3 21,-2 25,-11 10.4,-23 -17,-14 -31,-22 -39,-22.9 -8.7,-1 -9,-0.5 -9,15 0,35.6 1.6,38 19.4,33.6 z"
/>
<path fill="#0c0c0c" 
d="m 434,310
c -2,-2 -2,-2.9 -1.5,-13 1.5,-24 2.4,-35.6 3,-38 1,-4 -4.4,-5 -26,-6.5 -67,-4 -80,-1 -119,24 -20,12.6 -26,13 -45,4.5 -17,-8 -25.5,-15.6 -35.4,-32.7 -9,-15.4 -11,-15.7 -33,-5 -18.7,9 -36,10.6 -43.5,3.4 -5,-4.8 -16,-25 -17.6,-33.5 -3,-12.7 -14.4,-18.6 -23.6,-12 -2.7,2 -6,4 -7,5 -5,4 -25,10.4 -34.4,11.4 -5,0.6 -11,1.5 -13,2
C 16.5,225 13,218 19.6,183
c 2,-11 2.4,-16 2,-27.7 -0,-17 0.5,-19 8,-18 2.5,0.4 8,0.6 12,0.5 8.6,-0 18,1.9 24,5.6 4.5,2.6 33.6,24 39.8,29.5 7,6 10,4.5 21,-13.5 18,-29 27,-36.4 37,-30.7 2,1 7,4 11.5,6 5,3 10.6,7 15.4,11.5 9.4,9 11,9.4 23,2.4 10,-6 14,-9.4 27,-21 32,-30.4 42.6,-32.7 65.5,-14.4 4,3 10,8 13.4,10 4,2.4 7.5,6 10.4,10 7.7,10.7 8.5,9 9,-21 0.6,-26 1.7,-31 8,-34 8,-4 34,-0.4 45.4,6.5 2,1.4 8.6,5 14,8.5 7.5,4.5 12,8 19,15 7.8,8 19.4,18 26,22 1,0.6 4,1 6,1 2,0 7.7,1 12,1.6 4,1 13,1.8 19,2 10,0.5 12,1 20,4.5 5,2 12,4.6 15.5,5.4 14,3 21,6 43,16.6 51,25 62.6,42 38.4,57.7 -5.4,3.5 -32.6,14 -42,16.5 -3.6,1 -11,3 -16.5,5 -15.6,5 -25,7.4 -35,8 -6.5,0 -11,1 -15,3 -3,1 -7.6,3 -9.6,3 -7,1 -14,10.5 -20,26 -8.6,22.7 -25,36.6 -32.7,28 z
m 22.6,-37.13
c 7,-15 7,-16.6 -4,-17 -8,-0 -9,1 -7,8 1,3 1.6,7 1.6,9.5 0,14 2.6,13.5 9.5,-1 z
M 283.6,266.17
C 309,250.6 309.5,250.5 309.5,248
c 0,-3 -5,-6 -15,-7 -29.4,-3.4 -36,-4 -43,-6 -21,-5 -31,-6 -32.5,-5 -7,5.7 11,29 29.5,38.5 15,7.5 20,7 35.6,-2 z
M 173,231.22
c 20,-10 19.6,-11 -15,-17.6 -31,-6 -32,-6 -25,10 7,17 16.6,19 40,7.4 z
M 368,236
c -2,-1 -13,-1 -12.5,0 0,0.5 3.6,1 7,1 4.7,0 6,-0 5,-1 z
m -32,-1
c 2.6,-1 2.6,-1 1,-2 -2,-1 -9,-0.6 -10.4,0.6 -2,2 5,3 9.5,1.4 z
m 81,-7.36
c 1.5,-1 4,-3 5.5,-5 1.5,-2 4,-4 5.6,-5 1.5,-1 4,-3 5.4,-5 1.4,-2 4,-4.4 5.5,-5 7,-3 6.6,-8 -1.6,-12.6 -3,-1.6 -10.5,-6 -17,-10 -23,-14 -41,-20 -44,-16 -1.7,2 -0.7,5.4 4.4,14.4 2.4,4 6,11.4 8.6,16 12,24 20.4,32.5 28,28.6 z
m -141.4,-3.43
c 1,-2 -3.5,-4.4 -8,-4.9 -5.6,-0.5 -10.4,0 -9.5,2 1.5,2.5 16.6,5 17.9,3 z
M 255,202
c -0.5,-1.4 -7,-2 -10.6,-1 -4,1 -0.6,2.4 5.7,2.5 4,0 5,-0 5,-1 z
m 296,-9.6
c 8,-4 9,-9 2,-12.4 -3,-1.5 -37.5,-4 -53.7,-4 -8.6,0 -7.6,9 1.4,13.7 8.7,4 44,6 50,2.6 z
m -400.8,-23
c 7,-2.5 16,-5.4 21,-6.4 16,-3 15.5,-7 -1,-16.6 -12,-7 -13.8,-6.5 -24.4,8 -15,20.4 -14.4,22 4.6,15 z
M 267,154.32
c 1,-0 11.6,-1 24,-1 38,-1.4 40,-4.4 13,-25 -23,-17.4 -24.6,-17.4 -45.6,0.7 -18.4,15.8 -26.5,24.6 -24.6,26.6 1,1 31,-0 33,-1 z
m 121.4,-12.27
C 393,141 399,140 403,140
c 14.6,0 22,-9.6 14.5,-19 -5,-7 -32,-26 -40,-28 -16.5,-5 -18,-3 -17,23 1,31.7 2.6,33 28,26.6 z"
/>
	</g>
</defs>
<use x="-10" y="-70" xlink:href="#moruo"/>
</svg>
